# xmcd
#
# Track frame offsets: 
#        150
#        11167
#        23470
#        36587
#        42341
#        54002
#        67394
#        69887
#        87071
#        90987
#        108072
#        124702
#        126685
#        137829
#        149464
#        160566
#        174776
#        189638
#        204214
#        221736
#        224845
#        239767
#        252349
#        257004
#        270694
#        282028
#
# Disc length: 3926 seconds
#
# Revision: 1
# Processed by: cddbd v1.5.2PL0 Copyright (c) Steve Scherf et al.
# Submitted via: ExactAudioCopy v1.0b1
#
DISCID=800f541a
DTITLE=Johnny Cash - Johnny Cash Sings the Ballads of the True West
DYEAR=1965
DGENRE=Country
TTITLE0=Hiawatha's Vision
TTITLE1=The Road to Kentuck
TTITLE2=The Shifting, Whispering Sands, Part 1
TTITLE3=Narration 1
TTITLE4=The Ballad of Boot Hill
TTITLE5=I Ride an Old Paint
TTITLE6=Narration 2
TTITLE7=Hardin Wouldn't Run
TTITLE8=Narration 3
TTITLE9=Mister Garfield
TTITLE10=The Streets of Laredo
TTITLE11=Narration 4
TTITLE12=Johnny Reb
TTITLE13=A Letter From Home
TTITLE14=Bury Me Not on the Lone Prairie
TTITLE15=Mean as Hell
TTITLE16=Sam Hall
TTITLE17=25 Minutes to Go
TTITLE18=The Blizzard
TTITLE19=Narration 5
TTITLE20=Sweet Betsy From Pike
TTITLE21=Green Grow the Lilacs
TTITLE22=Narration 6
TTITLE23=Stampede
TTITLE24=The Shifting, Whispering Sands, Part 2
TTITLE25=Reflections
EXTD=
EXTT0=
EXTT1=
EXTT2=
EXTT3=
EXTT4=
EXTT5=
EXTT6=
EXTT7=
EXTT8=
EXTT9=
EXTT10=
EXTT11=
EXTT12=
EXTT13=
EXTT14=
EXTT15=
EXTT16=
EXTT17=
EXTT18=
EXTT19=
EXTT20=
EXTT21=
EXTT22=
EXTT23=
EXTT24=
EXTT25=
PLAYORDER=
